<svg width="32" height="32" viewBox="0 0 32 32" fill="none" xmlns="http://www.w3.org/2000/svg">
<g clip-path="url(#clip0_59_234)">
<path d="M25.3333 11H24.24L21.9733 4.76C21.7857 4.24547 21.4448 3.80087 20.9965 3.48616C20.5483 3.17144 20.0143 3.00176 19.4667 3H17.3333C16.6 3 16 3.6 16 4.33333C16 5.06667 16.6 5.66667 17.3333 5.66667H19.4667L21.4133 11H15L14.52 9.66667H14.64C15.3733 9.66667 15.9733 9.06667 15.9733 8.33333C15.9733 7.6 15.3733 7 14.64 7H10.6667C9.93333 7 9.33333 7.6 9.33333 8.33333C9.33333 9.06667 9.93333 9.66667 10.6667 9.66667H11.6667L14.0933 16.3333H13.2C12.6133 13.36 10.12 11.16 7 11.0133C3.26667 10.8267 0 13.9333 0 17.6667C0 21.4 2.93333 24.3333 6.66667 24.3333C9.94667 24.3333 12.6 22.08 13.2 19H18.8C19.3867 21.9733 21.88 24.1733 25 24.32C28.7333 24.4933 32 21.4 32 17.6533C32 13.9333 29.0667 11 25.3333 11ZM8 19H10.4267C9.86667 20.64 8.29333 21.7733 6.4 21.6533C4.41333 21.5333 2.76 19.8533 2.66667 17.8533C2.57333 15.52 4.36 13.6667 6.66667 13.6667C8.44 13.6667 9.89333 14.7733 10.4267 16.3333H8C7.26667 16.3333 6.66667 16.9333 6.66667 17.6667C6.66667 18.4 7.26667 19 8 19ZM18.8 16.3333H16.9333L15.96 13.6667H20C19.4133 14.44 18.9867 15.3333 18.8 16.3333ZM25.1733 21.6667C23.12 21.5867 21.3867 19.84 21.3333 17.7733C21.3067 16.4933 21.8533 15.3733 22.7333 14.6267L23.56 16.8933C23.8133 17.5867 24.5733 17.9467 25.2667 17.6933C25.96 17.44 26.32 16.68 26.0667 15.9867L25.2267 13.68L25.24 13.6667C25.7746 13.6484 26.3073 13.7387 26.806 13.9321C27.3047 14.1255 27.7591 14.4179 28.1416 14.7917C28.5242 15.1656 28.827 15.6131 29.0319 16.1072C29.2367 16.6013 29.3392 17.1318 29.3333 17.6667C29.3333 19.96 27.4933 21.7467 25.1733 21.6667ZM14.6667 28.3333H9.33333L17.3333 32.3333V29.6667H22.6667L14.6667 25.6667V28.3333Z" fill="url(#paint0_linear_59_234)"/>
</g>
<defs>
<linearGradient id="paint0_linear_59_234" x1="16" y1="3" x2="16" y2="32.3333" gradientUnits="userSpaceOnUse">
<stop stop-color="#FFBF00"/>
<stop offset="1" stop-color="#F2A60C"/>
</linearGradient>
<clipPath id="clip0_59_234">
<rect width="32" height="32" fill="white"/>
</clipPath>
</defs>
</svg>
