<svg width="32" height="32" viewBox="0 0 32 32" fill="none" xmlns="http://www.w3.org/2000/svg">
<g clip-path="url(#clip0_2005_178)">
<circle cx="16" cy="16" r="16" fill="white"/>
<path d="M22.7917 12.6666H21.9375L20.1667 7.59663C20.0201 7.17857 19.7537 6.81733 19.4035 6.56163C19.0534 6.30592 18.6362 6.16806 18.2083 6.16663H16.5417C15.9687 6.16663 15.5 6.65413 15.5 7.24996C15.5 7.84579 15.9687 8.33329 16.5417 8.33329H18.2083L19.7292 12.6666H14.7187L14.3437 11.5833H14.4375C15.0104 11.5833 15.4792 11.0958 15.4792 10.5C15.4792 9.90413 15.0104 9.41663 14.4375 9.41663H11.3333C10.7604 9.41663 10.2917 9.90413 10.2917 10.5C10.2917 11.0958 10.7604 11.5833 11.3333 11.5833H12.1146L14.0104 17H13.3125C12.8542 14.5841 10.9062 12.7966 8.46875 12.6775C5.55208 12.5258 3 15.05 3 18.0833C3 21.1166 5.29167 23.5 8.20833 23.5C10.7708 23.5 12.8437 21.6691 13.3125 19.1666H17.6875C18.1458 21.5825 20.0937 23.37 22.5312 23.4891C25.4479 23.63 28 21.1166 28 18.0725C28 15.05 25.7083 12.6666 22.7917 12.6666ZM9.25 19.1666H11.1458C10.7083 20.4991 9.47917 21.42 8 21.3225C6.44792 21.225 5.15625 19.86 5.08333 18.235C5.01042 16.3391 6.40625 14.8333 8.20833 14.8333C9.59375 14.8333 10.7292 15.7325 11.1458 17H9.25C8.67708 17 8.20833 17.4875 8.20833 18.0833C8.20833 18.6791 8.67708 19.1666 9.25 19.1666ZM17.6875 17H16.2292L15.4687 14.8333H18.625C18.1667 15.4616 17.8333 16.1875 17.6875 17ZM22.6667 21.3333C21.0625 21.2683 19.7083 19.8491 19.6667 18.17C19.6458 17.13 20.0729 16.22 20.7604 15.6133L21.4062 17.455C21.6042 18.0183 22.1979 18.3108 22.7396 18.105C23.2813 17.8991 23.5625 17.2816 23.3646 16.7183L22.7083 14.8441L22.7187 14.8333C23.1364 14.8185 23.5526 14.8918 23.9422 15.049C24.3318 15.2061 24.6868 15.4437 24.9857 15.7474C25.2845 16.0512 25.5211 16.4147 25.6811 16.8162C25.8411 17.2177 25.9213 17.6487 25.9167 18.0833C25.9167 19.9466 24.4792 21.3983 22.6667 21.3333Z" fill="url(#paint0_linear_2005_178)"/>
</g>
<defs>
<linearGradient id="paint0_linear_2005_178" x1="15.5" y1="6.16663" x2="15.5" y2="23.5" gradientUnits="userSpaceOnUse">
<stop stop-color="#FFB60D"/>
<stop offset="1" stop-color="#E59317"/>
</linearGradient>
<clipPath id="clip0_2005_178">
<rect width="32" height="32" fill="white"/>
</clipPath>
</defs>
</svg>
