<svg width="20" height="20" viewBox="0 0 20 20" fill="none" xmlns="http://www.w3.org/2000/svg">
<path d="M9.97433 1.66699C5.4033 1.66699 1.66309 5.41699 1.66309 9.99999C1.66309 14.583 5.4033 18.333 9.97433 18.333C14.5454 18.333 18.2856 14.583 18.2856 9.99999C18.2856 5.41699 14.5454 1.66699 9.97433 1.66699ZM12.9246 13.167L9.53348 11.075C9.41139 11.0019 9.31039 10.8981 9.24044 10.774C9.17048 10.6498 9.13398 10.5096 9.13453 10.367V6.45799C9.1389 6.29206 9.2072 6.13428 9.3251 6.01775C9.443 5.90122 9.60133 5.835 9.76687 5.83299C9.9318 5.8343 10.0896 5.90057 10.2062 6.0175C10.3228 6.13442 10.3889 6.29264 10.3902 6.45799V10.166L13.5819 12.091C13.8811 12.275 13.9808 12.666 13.7973 12.967C13.7071 13.1084 13.565 13.2087 13.4018 13.2461C13.2385 13.2835 13.0672 13.2551 12.9246 13.167Z" fill="url(#paint0_linear_68_126)"/>
<defs>
<linearGradient id="paint0_linear_68_126" x1="9.97433" y1="1.66699" x2="9.97433" y2="18.333" gradientUnits="userSpaceOnUse">
<stop stop-color="#FFBF00"/>
<stop offset="1" stop-color="#F2A60C"/>
</linearGradient>
</defs>
</svg>
