<svg width="12" height="10" viewBox="0 0 12 10" fill="none" xmlns="http://www.w3.org/2000/svg">
<path d="M10.2363 0.353893C10.5931 -0.0675865 11.2249 -0.120051 11.6464 0.236705C12.0679 0.593506 12.1204 1.22532 11.7636 1.64686L5.7636 8.73573C5.58223 8.95003 5.31854 9.07848 5.03801 9.08924C4.79267 9.0986 4.55412 9.01687 4.36614 8.86268L4.28801 8.79237L4.26164 8.766C4.25893 8.76326 4.26055 8.76397 4.25774 8.76112L4.19328 8.69667C4.19173 8.6951 4.12411 8.62665 4.11321 8.61561C4.13804 8.64076 4.08293 8.58404 4.10735 8.60878L4.06242 8.56385C4.05407 8.5554 4.01456 8.51513 4.00481 8.50526L3.97356 8.47401C3.97221 8.47264 3.97101 8.47051 3.96965 8.46913C3.96828 8.46774 3.96615 8.46662 3.96477 8.46522C3.96348 8.46392 3.96216 8.46263 3.96086 8.46132C3.95947 8.45991 3.95836 8.45785 3.95696 8.45643C3.94898 8.44836 3.95613 8.45668 3.94817 8.44862C3.94302 8.44341 3.94456 8.44508 3.93938 8.43983C3.87047 8.37005 3.93768 8.43807 3.86614 8.36561C3.8475 8.34674 3.72567 8.2226 3.69524 8.19178L3.64641 8.14296C3.58733 8.08312 3.65636 8.15172 3.5966 8.0912L3.5302 8.02479C3.52028 8.01474 3.52647 8.02022 3.51653 8.01014C3.48719 7.98043 3.53126 8.02623 3.50188 7.99647C3.48033 7.97465 3.48174 7.97528 3.48821 7.98182C3.42655 7.91938 3.49343 7.98785 3.43059 7.92421C3.3842 7.87723 3.4183 7.91154 3.37102 7.86366C3.33642 7.82862 3.34393 7.83605 3.30852 7.80018C3.29238 7.78384 3.2608 7.7517 3.24407 7.73475C3.10857 7.59753 3.10917 7.59884 2.95989 7.44764C2.95682 7.44454 2.95418 7.441 2.9511 7.43788L2.90227 7.38905C2.86074 7.34699 2.92432 7.41066 2.88274 7.36854L2.8427 7.3285C2.78299 7.26803 2.86291 7.3485 2.80266 7.28749C2.73051 7.21441 2.70955 7.1934 2.63371 7.11659C2.59708 7.07949 2.6271 7.11045 2.58977 7.07264C2.58615 7.06898 2.58266 7.0646 2.57903 7.06092L2.54582 7.02772C2.53779 7.01958 2.46301 6.94404 2.45403 6.93495C2.39054 6.87065 2.33093 6.80978 2.2636 6.74159C2.24288 6.72061 2.1847 6.662 2.16301 6.64003C2.13107 6.60768 2.1448 6.62125 2.11223 6.58827C2.07779 6.55339 2.09534 6.57182 2.06047 6.53651C2.05615 6.53213 2.05212 6.52723 2.04778 6.52284C2.04344 6.51845 2.03845 6.51455 2.0341 6.51014C2.00493 6.4806 2.03697 6.51241 2.00774 6.4828L1.9677 6.44276C1.96334 6.43834 1.95938 6.43352 1.955 6.42909C1.88693 6.36014 1.91472 6.38871 1.84563 6.31874C1.83114 6.30406 1.83285 6.30517 1.81828 6.29042L1.76164 6.23378C1.75703 6.22911 1.7526 6.22381 1.74797 6.21913C1.74333 6.21443 1.73798 6.21017 1.73332 6.20546C1.69429 6.16593 1.71581 6.18747 1.67668 6.14784C1.61838 6.08879 1.70568 6.17758 1.64739 6.11854C1.61203 6.08274 1.65448 6.12414 1.61907 6.08827C1.57374 6.04236 1.60506 6.07582 1.55949 6.02967C1.52718 5.99695 1.56245 6.03207 1.5302 5.9994C1.52138 5.99046 1.50881 5.97813 1.49992 5.96913C1.46024 5.92894 1.51007 5.9788 1.47063 5.93885C1.46579 5.93395 1.44531 5.91263 1.44035 5.9076L1.37883 5.84608C1.37714 5.84437 1.35209 5.81841 1.34856 5.81483L1.25383 5.7201C1.24506 5.71122 1.23146 5.69687 1.22258 5.68788C1.21729 5.68252 1.21226 5.67665 1.20696 5.67128C1.20164 5.66589 1.19568 5.66105 1.19035 5.65565C1.14256 5.60724 1.17399 5.63892 1.1259 5.59022C1.12057 5.58482 1.11562 5.57903 1.11028 5.57362L1.07707 5.54042C1.07174 5.53502 1.06679 5.52923 1.06145 5.52381L0.995042 5.45741L0.928635 5.38905C0.923046 5.38339 0.916664 5.37813 0.911057 5.37245C0.905495 5.36681 0.900035 5.36052 0.894456 5.35487L0.826096 5.28651C0.820444 5.28078 0.815165 5.27467 0.809495 5.26893C0.803766 5.26313 0.797663 5.25717 0.791917 5.25135C0.755599 5.21457 0.759294 5.21822 0.722581 5.18104L0.687424 5.14588C0.634512 5.0923 0.705362 5.16352 0.652268 5.10975L0.617112 5.0746C0.611217 5.06863 0.605447 5.06203 0.599534 5.05604C0.593592 5.05002 0.586939 5.0445 0.580979 5.03846L0.545823 5.00135C0.51345 4.96857 0.542025 4.99797 0.50969 4.96522C0.507428 4.96293 0.438999 4.89359 0.436448 4.891C0.386738 4.84066 0.450516 4.90474 0.400315 4.85389L0.28801 4.74159C-0.0999861 4.34859 -0.0952084 3.71555 0.297776 3.32753C0.690777 2.93953 1.32382 2.94333 1.71184 3.33631C1.71799 3.34255 1.72426 3.34865 1.73039 3.35487C1.73662 3.36118 1.74273 3.36811 1.74895 3.3744L1.78606 3.41151C1.85416 3.48048 1.79151 3.41805 1.8593 3.48671C1.8654 3.49289 1.87177 3.4991 1.87785 3.50526C1.88385 3.51133 1.89043 3.51679 1.89641 3.52284C1.95683 3.58403 1.87228 3.49892 1.93254 3.55995C1.93857 3.56606 1.94508 3.57241 1.9511 3.5785C1.95701 3.58449 1.96278 3.59109 1.96867 3.59706L2.02239 3.65077C2.02833 3.65679 2.03404 3.66332 2.03996 3.66932C2.08712 3.71709 2.02894 3.65672 2.0761 3.70448C2.08198 3.71044 2.08781 3.7171 2.09367 3.72303C2.09943 3.72887 2.10551 3.7348 2.11125 3.74061C2.11598 3.7454 2.14041 3.77069 2.14543 3.77577L2.19817 3.8285C2.20381 3.83422 2.20914 3.84038 2.21477 3.84608C2.24028 3.87192 2.25887 3.88986 2.2841 3.91542C2.32914 3.96102 2.30673 3.93942 2.35149 3.98475L2.38469 4.01796C2.39026 4.0236 2.39574 4.02991 2.40129 4.03553L2.4843 4.11854C2.51923 4.15392 2.51507 4.14985 2.54973 4.18495C2.55508 4.19036 2.56002 4.19615 2.56535 4.20155C2.57069 4.20695 2.57664 4.21179 2.58196 4.21717C2.58725 4.22254 2.5923 4.22843 2.59758 4.23378C2.60293 4.23919 2.60885 4.24498 2.61418 4.25038C2.67942 4.31645 2.61232 4.24866 2.67766 4.31483C2.68477 4.32204 2.79619 4.43525 2.80168 4.44081L2.87883 4.51796C2.88381 4.52299 2.88852 4.52856 2.89348 4.53358L2.92375 4.56385C2.93299 4.57321 2.94388 4.58484 2.95305 4.59413L3.04192 4.68299C3.04548 4.6866 3.15463 4.79763 3.15715 4.80018C3.23618 4.88023 3.19054 4.83453 3.26848 4.91346C3.28941 4.93466 3.30347 4.94819 3.32414 4.96913C3.3345 4.97961 3.36812 5.01395 3.37785 5.02381C3.43002 5.07665 3.43221 5.07947 3.48332 5.13124C3.48767 5.13563 3.49267 5.13955 3.49699 5.14393C3.50133 5.14832 3.50537 5.15323 3.50969 5.1576C3.53287 5.18108 3.51183 5.16042 3.53508 5.18397C3.53936 5.18831 3.54449 5.19235 3.54875 5.19667L3.58684 5.23475C3.63395 5.28246 3.56518 5.21347 3.61223 5.26112C3.61628 5.26522 3.61991 5.26973 3.62395 5.27381L3.68645 5.33631C3.77906 5.43011 3.7891 5.43978 3.87785 5.52967C3.95889 5.61174 3.88856 5.54131 3.96867 5.62245C3.97404 5.62788 3.98581 5.63951 3.99114 5.64491C3.99485 5.64867 3.99818 5.65288 4.00188 5.65663C4.00557 5.66037 4.00992 5.66364 4.0136 5.66737C4.03411 5.68815 4.03721 5.6917 4.05754 5.71229C4.07411 5.72907 4.08409 5.73863 4.10051 5.75526C4.16827 5.82389 4.07549 5.73036 4.1425 5.79823L4.16399 5.81971C4.16739 5.82316 4.17036 5.82702 4.17375 5.83046L4.26653 5.92323C4.27875 5.93561 4.29354 5.95106 4.30559 5.96327C4.30887 5.96659 4.31208 5.9707 4.31535 5.97401L4.40227 6.06092C4.43912 6.09824 4.38426 6.04343 4.42082 6.08046L4.47649 6.13612C4.47949 6.13916 4.48229 6.14286 4.48528 6.14588C4.4883 6.14895 4.49203 6.15162 4.49504 6.15467C4.49804 6.15771 4.50085 6.16142 4.50383 6.16444L4.5302 6.19081C4.54716 6.20799 4.54866 6.21003 4.56535 6.22694C4.62051 6.2828 4.54557 6.20645 4.60051 6.2621C4.60326 6.26488 4.60559 6.26812 4.60832 6.27088C4.61108 6.27367 4.61437 6.27592 4.61711 6.2787C4.65894 6.32106 4.59212 6.25415 4.63371 6.29628L4.70012 6.36268C4.70281 6.36541 4.70525 6.36875 4.70793 6.37147C4.71053 6.3741 4.71316 6.37667 4.71574 6.37928C4.71841 6.38199 4.72188 6.38441 4.72453 6.3871C4.72713 6.38972 4.72977 6.39229 4.73235 6.39491C4.74869 6.41146 4.74746 6.41079 4.7636 6.42713C4.78665 6.45048 4.77113 6.43535 4.79387 6.45838L4.85442 6.51893C4.91651 6.58182 4.82087 6.48558 4.88274 6.54823L4.90422 6.56971C4.90658 6.5721 4.90871 6.57515 4.91106 6.57753C4.91875 6.58532 4.93634 6.60197 4.92571 6.5912L4.94231 6.6078L10.2363 0.353893Z" fill="#FFBB00"/>
</svg>
