<svg width="32" height="32" viewBox="0 0 32 32" fill="none" xmlns="http://www.w3.org/2000/svg">
<path d="M23.9997 10.6667H22.6663V8.00001C22.6663 4.32001 19.6797 1.33334 15.9997 1.33334C12.3197 1.33334 9.33301 4.32001 9.33301 8.00001V10.6667H7.99967C6.53301 10.6667 5.33301 11.8667 5.33301 13.3333V26.6667C5.33301 28.1333 6.53301 29.3333 7.99967 29.3333H23.9997C25.4663 29.3333 26.6663 28.1333 26.6663 26.6667V13.3333C26.6663 11.8667 25.4663 10.6667 23.9997 10.6667ZM15.9997 22.6667C14.533 22.6667 13.333 21.4667 13.333 20C13.333 18.5333 14.533 17.3333 15.9997 17.3333C17.4663 17.3333 18.6663 18.5333 18.6663 20C18.6663 21.4667 17.4663 22.6667 15.9997 22.6667ZM11.9997 10.6667V8.00001C11.9997 5.78668 13.7863 4.00001 15.9997 4.00001C18.213 4.00001 19.9997 5.78668 19.9997 8.00001V10.6667H11.9997Z" fill="url(#paint0_linear_59_227)"/>
<defs>
<linearGradient id="paint0_linear_59_227" x1="15.9997" y1="1.33334" x2="15.9997" y2="29.3333" gradientUnits="userSpaceOnUse">
<stop stop-color="#FFBF00"/>
<stop offset="1" stop-color="#F2A60C"/>
</linearGradient>
</defs>
</svg>
